<mxfile host="65bd71144e">
    <diagram id="vpNjrvC67v6EEpSLr6FY" name="Page-1">
        <mxGraphModel dx="816" dy="284" grid="1" gridSize="10" guides="1" tooltips="1" connect="1" arrows="1" fold="1" page="1" pageScale="1" pageWidth="850" pageHeight="1100" math="0" shadow="0">
            <root>
                <mxCell id="0"/>
                <mxCell id="1" parent="0"/>
                <mxCell id="37" value="User" style="swimlane;whiteSpace=wrap;html=1;" vertex="1" parent="1">
                    <mxGeometry x="90" y="90" width="200" height="440" as="geometry"/>
                </mxCell>
                <mxCell id="38" value="" style="ellipse;html=1;shape=startState;fillColor=#000000;strokeColor=#ff0000;" vertex="1" parent="37">
                    <mxGeometry x="85" y="40" width="30" height="30" as="geometry"/>
                </mxCell>
                <mxCell id="39" value="" style="edgeStyle=orthogonalEdgeStyle;html=1;verticalAlign=bottom;endArrow=open;endSize=8;strokeColor=#ff0000;entryX=0.5;entryY=0;entryDx=0;entryDy=0;" edge="1" parent="37" source="38" target="40">
                    <mxGeometry relative="1" as="geometry">
                        <mxPoint x="100" y="130" as="targetPoint"/>
                    </mxGeometry>
                </mxCell>
                <mxCell id="40" value="Membuka halaman contract" style="rounded=1;whiteSpace=wrap;html=1;" vertex="1" parent="37">
                    <mxGeometry x="50" y="110" width="100" height="50" as="geometry"/>
                </mxCell>
                <mxCell id="41" value="" style="edgeStyle=none;html=1;" edge="1" parent="37" source="42" target="43">
                    <mxGeometry relative="1" as="geometry"/>
                </mxCell>
                <mxCell id="42" value="Pilih tanda cari data" style="rounded=1;whiteSpace=wrap;html=1;" vertex="1" parent="37">
                    <mxGeometry x="50" y="200" width="100" height="50" as="geometry"/>
                </mxCell>
                <mxCell id="43" value="Tulis kata kunci yang ingin dicari" style="rounded=1;whiteSpace=wrap;html=1;" vertex="1" parent="37">
                    <mxGeometry x="50" y="290" width="100" height="50" as="geometry"/>
                </mxCell>
                <mxCell id="44" value="Sistem" style="swimlane;whiteSpace=wrap;html=1;" vertex="1" parent="1">
                    <mxGeometry x="290" y="90" width="200" height="440" as="geometry"/>
                </mxCell>
                <mxCell id="45" value="Menampilkan halaman unit" style="rounded=1;whiteSpace=wrap;html=1;" vertex="1" parent="44">
                    <mxGeometry x="50" y="110" width="100" height="50" as="geometry"/>
                </mxCell>
                <mxCell id="46" value="" style="edgeStyle=none;html=1;" edge="1" parent="44" source="47" target="48">
                    <mxGeometry relative="1" as="geometry"/>
                </mxCell>
                <mxCell id="47" value="Menampilkan hasil pencarian" style="rounded=1;whiteSpace=wrap;html=1;" vertex="1" parent="44">
                    <mxGeometry x="50" y="289" width="100" height="50" as="geometry"/>
                </mxCell>
                <mxCell id="48" value="" style="ellipse;html=1;shape=endState;fillColor=#000000;strokeColor=#ff0000;" vertex="1" parent="44">
                    <mxGeometry x="85" y="369" width="30" height="30" as="geometry"/>
                </mxCell>
                <mxCell id="49" value="" style="edgeStyle=none;html=1;" edge="1" parent="1" source="40" target="45">
                    <mxGeometry relative="1" as="geometry"/>
                </mxCell>
                <mxCell id="50" value="" style="edgeStyle=elbowEdgeStyle;elbow=vertical;endArrow=classic;html=1;curved=0;rounded=0;endSize=8;startSize=8;exitX=0.5;exitY=1;exitDx=0;exitDy=0;entryX=0.5;entryY=0;entryDx=0;entryDy=0;" edge="1" parent="1" source="45" target="42">
                    <mxGeometry width="50" height="50" relative="1" as="geometry">
                        <mxPoint x="390" y="230" as="sourcePoint"/>
                        <mxPoint x="440" y="180" as="targetPoint"/>
                    </mxGeometry>
                </mxCell>
                <mxCell id="51" value="" style="edgeStyle=none;html=1;exitX=1;exitY=0.5;exitDx=0;exitDy=0;" edge="1" parent="1" source="43" target="47">
                    <mxGeometry relative="1" as="geometry"/>
                </mxCell>
            </root>
        </mxGraphModel>
    </diagram>
</mxfile>